<svg version="1.1" xmlns="http://www.w3.org/2000/svg" xmlns:xlink="http://www.w3.org/1999/xlink" width="288.77387" height="89.25887" viewBox="0,0,288.77387,89.25887"><g transform="translate(-31.66052,-209.01721)"><g data-paper-data="{&quot;isPaintingLayer&quot;:true}" fill-rule="nonzero" stroke-linecap="butt" stroke-linejoin="miter" stroke-miterlimit="10" stroke-dasharray="" stroke-dashoffset="0" style="mix-blend-mode: normal"><path d="M308.88876,242.06309c-0.02949,0.12532 -0.05161,0.25065 -0.08847,0.37597c-0.11058,0.46444 -0.33911,1.56287 -0.56764,3.70813c0,0.03686 0,0.06635 -0.00737,0.08847c1.26061,5.07196 -0.86253,8.16083 -2.27058,9.56889c-0.08847,0.09584 -0.1843,0.1843 -0.28751,0.27276c-1.37857,1.25324 -3.78922,2.74977 -7.38677,2.74977c-1.7914,0 -3.46485,-0.39809 -4.92451,-1.12792c0.03686,2.01256 0.05898,4.78445 0.05898,8.63264c1.32696,0.46444 2.54335,1.21638 3.57543,2.20422c2.04942,1.96833 3.16997,4.60015 3.16997,7.40889c0,4.17257 -2.40328,7.79959 -6.27359,9.4583c-0.09584,0.04423 -0.19904,0.08847 -0.29488,0.12532c-1.29747,0.49393 -2.75714,0.7372 -4.46744,0.7372c-0.61925,0 -1.28273,-0.02949 -2.00519,-0.09584c-0.44232,-0.02212 -1.09106,-0.01474 -1.85775,0.00737c-1.39331,0.15481 -3.35427,0.30963 -5.97872,0.45707c-0.05161,0 -0.10321,0.00737 -0.16218,0.00737c-0.34648,0.01474 -0.67823,0.02212 -1.0026,0.02212c-4.69598,0 -8.12397,-1.48915 -10.19551,-4.41584c-0.04423,-0.05898 -0.0811,-0.11795 -0.11795,-0.17693c-2.1084,-3.14785 -2.16737,-7.12874 -0.16218,-10.37981c0.01474,-0.03686 0.03686,-0.06635 0.05898,-0.10321c1.27536,-2.00519 3.14048,-3.43537 5.5585,-4.27577c0.02949,-1.4228 0.02212,-3.20683 -0.02212,-5.3226c-1.20164,0.5013 -2.58758,0.79617 -4.14308,0.79617c-4.10622,0 -7.49735,-2.44014 -8.67688,-6.14827c-0.24328,-0.75195 -0.47181,-1.85038 -1.0026,-4.32738c-0.02212,-0.08847 -0.03686,-0.17693 -0.05161,-0.26539l-1.09106,-6.09666c-0.03686,-0.13269 -0.08847,-0.28751 -0.14744,-0.46444c-0.56764,-1.61447 -0.83304,-2.98567 -0.83304,-4.31264c0,-1.64396 0.47918,-4.12834 2.74977,-6.60534c1.14266,-1.25324 3.22158,-2.87509 6.56847,-3.3985c0.41283,-0.06635 0.83304,-0.10321 1.25324,-0.10321h8.15346c0.1843,0 0.3686,0.00737 0.55291,0.02212c3.11099,0.11058 5.89762,0.10321 8.28615,-0.00737c3.33953,-0.14744 6.67168,-0.43495 9.93749,-0.85515c0.3686,-0.11795 0.76669,-0.23591 1.19427,-0.33911c0.40546,-0.10321 0.81829,-0.16955 1.23113,-0.21379c3.14048,-0.28751 6.06717,0.61925 8.34513,2.56547c2.82348,2.42539 4.06936,6.09666 3.32478,9.8269z" fill="#00cccc" stroke="#ffffff" stroke-width="20"/><path d="M255.89237,288.27608c-2.87148,0 -7.09835,-0.90582 -10.92976,-5.21928c-0.06327,-0.0716 -0.12572,-0.1432 -0.18899,-0.21563c-1.1689,0.66688 -2.48517,1.15059 -3.91883,1.41701c-1.43948,0.26808 -3.55584,0.64856 -6.33906,1.13644c-2.84733,0.55365 -4.96202,0.81174 -6.64711,0.81174c-5.66802,0 -8.86836,-2.48101 -10.55594,-4.56239c-1.14393,-1.41035 -1.84244,-3.1304 -2.00645,-4.93871c-0.46873,-5.16516 2.18628,-9.62265 6.68957,-11.72735c-0.06577,-0.9566 -0.1407,-2.04059 -0.22645,-3.26611c-1.44448,-1.35456 -2.50932,-3.08877 -3.07545,-5.08191c-0.23145,-0.81424 -0.34884,-1.65678 -0.34884,-2.50349v-0.22063c0,-1.03736 0.17567,-2.04891 0.50369,-2.99802c0.23894,-0.93496 0.62441,-1.82912 1.14559,-2.64835c0.27058,-0.42543 0.56031,-0.82839 0.86752,-1.2097c-0.00666,-0.07326 -0.01332,-0.14736 -0.01832,-0.22063c-1.48528,-0.55698 -3.01634,-1.44781 -4.33677,-2.87397c-2.00229,-2.16464 -2.97888,-4.99282 -2.74826,-7.96587c0.55032,-6.6188 5.96774,-9.73088 10.59757,-10.44854c1.98814,-0.38131 5.6214,-0.92413 11.08461,-1.65595c0.8567,-0.11406 1.70257,-0.1074 2.51931,0.00999c0.51702,0.02331 1.66344,0.0666 4.13696,0.13154c0.16235,0.00416 0.32553,0.01332 0.48704,0.02581c5.92195,0.47123 10.10054,1.58185 13.14851,3.49589c0.05661,0.03497 0.11239,0.07077 0.16818,0.1074c3.5933,2.36695 6.16173,5.72547 7.42721,9.7134c0.00916,0.02997 0.01832,0.05911 0.02747,0.08908c0.53283,1.74087 0.70267,3.67239 0.53283,6.06848c-0.12488,2.70497 -0.71683,4.92622 -1.80664,6.77282c-0.63191,1.11895 -1.39286,2.17213 -2.28702,3.16454c0.76262,2.17213 1.31793,4.63732 1.67926,7.43387c0.34135,-0.02581 0.68602,-0.03913 1.03403,-0.03913c4.89541,0 9.05235,2.97222 10.59008,7.5729c0.06078,0.18399 0.11656,0.36799 0.16568,0.55531c1.25716,4.7364 -1.11312,8.87335 -1.89156,10.23291c-1.57769,2.75742 -3.39848,4.80383 -5.56312,6.24915c-2.24373,1.4986 -5.06192,2.39609 -8.6136,2.7441c-0.47372,0.04496 -0.89083,0.06327 -1.30295,0.06327z" fill="#cccccc" stroke="#ffffff" stroke-width="20"/><path d="M192.48713,236.66296c-0.00142,0.23006 -0.01146,0.45303 -0.02935,0.67676c-0.51242,5.57585 -2.9625,10.22218 -7.08822,13.45366c-2.48191,1.95379 -5.86016,3.49523 -10.29512,4.68749c-0.01494,0.00938 -0.03066,0.01091 -0.04636,0.01243c0.09838,0.76741 0.20518,1.62122 0.31174,2.55433c4.42218,-0.26339 7.17262,1.76843 8.51937,3.14389c1.22229,1.23692 2.68083,3.3547 2.99464,6.58273c0.50316,5.17585 -2.43191,9.72662 -7.30375,11.31812c-1.89797,0.62056 -4.0008,0.92805 -6.25503,0.90142l-0.04713,0.00458c-0.13352,0.01298 -0.39194,0.04603 -0.82719,0.13591c-2.28391,0.48366 -2.99252,0.61598 -3.44654,0.67597c-0.39827,0.0625 -1.42585,0.25754 -3.74848,0.83217c-2.67073,0.66398 -4.47607,1.0139 -5.85839,1.14828c-3.50293,0.34053 -6.4998,-0.3116 -8.91841,-1.94757c-4.07407,-2.68013 -5.55943,-7.60193 -3.66208,-11.98046c1.30446,-3.21886 3.43609,-4.86111 5.12342,-5.69111c0.72498,-0.37175 1.51889,-0.68679 2.36529,-0.95141l-0.00076,-0.00785c-0.35451,-1.28164 -0.58347,-2.82126 -0.73639,-4.88361l-0.31839,-3.27516c-0.20955,-0.60597 -0.40546,-1.31633 -0.48868,-2.17242l-0.41994,-4.31976c-0.03556,-0.20268 -0.07189,-0.41321 -0.10036,-0.62451c-0.0864,-0.56244 -0.20889,-1.41473 -0.36596,-2.54113c-0.06763,-0.53256 -0.14921,-1.12717 -0.24401,-1.776c-2.74915,-0.2243 -5.29092,-1.33296 -7.32249,-3.22853c-1.22959,-1.149 -2.10411,-2.64172 -2.50159,-4.28388c-0.18021,-0.71188 -0.2968,-1.42203 -0.36323,-2.10533c-0.28785,-2.96099 0.71575,-5.84932 2.75751,-7.92682c0.08661,-0.0877 0.16614,-0.16679 0.25352,-0.24664c2.19404,-2.06059 5.08414,-3.40394 8.82912,-4.10892c0.09348,-0.01701 0.18697,-0.03403 0.2726,-0.05028l4.88994,-0.75286c0.15632,-0.02312 0.32125,-0.03916 0.47834,-0.05443l4.96379,-0.48255c1.52621,-0.20387 2.74435,-0.31436 3.81,-0.36246c0.08716,-0.00055 0.18217,-0.00185 0.26933,-0.0024c2.64542,-0.02725 5.86078,0.26273 9.83059,0.89163c0.2017,0.03589 0.41201,0.07887 0.61447,0.12262c0.71407,0.16843 1.2561,0.36152 3.37616,1.20989c1.6895,0.66031 3.34746,1.64873 4.92372,2.93845c2.59412,2.05496 4.256,4.4701 4.96383,7.18413c0.00382,0.03926 0.01549,0.07778 0.02792,0.12414c0.62034,2.54811 0.83173,3.90709 0.81252,5.17749z" fill="#f9a937" stroke="#ffffff" stroke-width="20"/><path d="M81.69798,264.28893c-0.51604,5.56588 -2.18949,9.79005 -5.10144,12.86418c-1.69556,1.7914 -4.20942,3.20683 -8.39674,4.71072c-0.0811,0.02949 -0.16955,0.05898 -0.25802,0.08847c-2.00519,0.64136 -4.19468,0.97311 -6.50212,0.97311c-3.51645,0 -6.78226,-0.69297 -9.70896,-2.0568c-4.32738,-2.01993 -6.48001,-4.84342 -7.54896,-7.22458c-0.15481,-0.25802 -0.317,-0.52342 -0.47181,-0.81092c-0.44232,-0.80355 -0.75195,-1.67345 -0.89939,-2.58021c-0.21379,-1.26798 -0.55291,-3.17734 -1.01733,-5.71332c-0.08847,-0.48655 -0.13269,-0.97311 -0.13269,-1.46703v-6.41366c0,-0.79617 0.06635,-1.96096 0.54553,-5.11618c0.46444,-3.08888 0.66348,-4.04724 1.03208,-4.99086c0.96574,-2.57284 3.85557,-10.13653 10.85899,-11.63305c2.30007,-0.48655 4.88765,-0.55291 7.33516,-0.28751c1.73242,-2.77926 4.82868,-4.43796 8.34513,-4.43796c6.10404,0 9.48042,4.02512 10.11442,8.00602c0.06635,0.4202 0.09584,0.84778 0.09584,1.27536v10.23974c0,0.00737 0,0.01474 0,0.01474c0,0.00737 0,0.00737 0,0.01474c0,0 0,0 0,0.00737c0,0.67085 -0.08847,1.31222 -0.23591,1.93884c1.4228,1.61447 2.21161,3.60492 2.24847,5.73544c0.04423,2.13789 -0.05898,4.4527 -0.30226,6.86336z" fill="#00cccc" stroke="#ffffff" stroke-width="20"/><path d="M159.84795,243.36225c-0.02949,0.12532 -0.05161,0.25065 -0.08847,0.37597c-0.11058,0.46444 -0.33911,1.56287 -0.56764,3.70813c0,0.03686 0,0.06635 -0.00737,0.08847c1.26061,5.07196 -0.86253,8.16083 -2.27058,9.56889c-0.08847,0.09584 -0.1843,0.1843 -0.28751,0.27277c-1.37857,1.25324 -3.78922,2.74977 -7.38677,2.74977c-1.7914,0 -3.46485,-0.39809 -4.92451,-1.12792c0.03686,2.01256 0.05898,4.78445 0.05898,8.63264c1.32696,0.46444 2.54335,1.21639 3.57543,2.20423c2.04942,1.96833 3.16997,4.60015 3.16997,7.40888c0,4.17257 -2.40328,7.7996 -6.27359,9.45831c-0.09584,0.04423 -0.19904,0.08847 -0.29488,0.12532c-1.29747,0.49393 -2.75714,0.7372 -4.46744,0.7372c-0.61925,0 -1.28273,-0.02949 -2.00519,-0.09584c-0.44232,-0.02212 -1.09106,-0.01474 -1.85775,0.00737c-1.39331,0.15481 -3.35427,0.30963 -5.97872,0.45707c-0.05161,0 -0.10321,0.00737 -0.16218,0.00737c-0.34648,0.01474 -0.67823,0.02212 -1.0026,0.02212c-4.69598,0 -8.12397,-1.48915 -10.19551,-4.41584c-0.04423,-0.05898 -0.0811,-0.11795 -0.11795,-0.17693c-2.1084,-3.14785 -2.16737,-7.12874 -0.16218,-10.37981c0.01474,-0.03686 0.03686,-0.06635 0.05898,-0.10321c1.27536,-2.00519 3.14048,-3.43537 5.5585,-4.27577c0.02949,-1.4228 0.02212,-3.20683 -0.02212,-5.3226c-1.20164,0.5013 -2.58758,0.79617 -4.14308,0.79617c-4.10622,0 -7.49735,-2.44014 -8.67688,-6.14827c-0.24328,-0.75195 -0.47181,-1.85038 -1.0026,-4.32738c-0.02212,-0.08847 -0.03686,-0.17693 -0.05161,-0.26539l-1.09106,-6.09666c-0.03686,-0.13269 -0.08847,-0.28751 -0.14744,-0.46444c-0.56764,-1.61447 -0.83304,-2.98567 -0.83304,-4.31264c0,-1.64396 0.47918,-4.12834 2.74977,-6.60534c1.14266,-1.25324 3.22158,-2.87509 6.56847,-3.3985c0.41283,-0.06635 0.83304,-0.10321 1.25324,-0.10321h8.15346c0.1843,0 0.3686,0.00737 0.55291,0.02212c3.11099,0.11058 5.89762,0.10321 8.28615,-0.00737c3.33953,-0.14744 6.67168,-0.43495 9.93749,-0.85515c0.3686,-0.11795 0.76669,-0.23591 1.19427,-0.33911c0.40546,-0.10321 0.81829,-0.16955 1.23113,-0.21379c3.14048,-0.28751 6.06717,0.61925 8.34513,2.56547c2.82348,2.42539 4.06936,6.09666 3.32478,9.8269z" fill="#00cccc" stroke="#ffffff" stroke-width="20"/><path d="M224.79166,252.4681v3.50745c0,2.07983 -0.36234,5.03651 -1.13775,9.30487c-0.31886,1.98562 -0.92758,4.02922 -1.80444,6.08005c-0.01449,0.02898 -0.02899,0.05073 -0.03624,0.07972c-1.55806,3.51469 -4.12342,6.58009 -7.63087,9.10921c-3.73934,2.68856 -7.60912,4.05095 -11.51514,4.05095c-1.5798,0 -3.08712,-0.24639 -4.50025,-0.72468c-5.00753,-1.61604 -8.96428,-4.68867 -11.75429,-9.13095c-0.60148,-0.97832 -1.19572,-2.18853 -1.9349,-3.95675c-0.01449,-0.04348 -0.02898,-0.07971 -0.05073,-0.12319c-0.91309,-2.28999 -1.39863,-4.12342 -1.52907,-5.77569c-0.02175,-0.28263 -0.10145,-0.96382 -0.36234,-2.29723c-0.09421,-0.50002 -0.14494,-1.0073 -0.14494,-1.51457v-3.10163c-0.31886,-1.2247 -0.34785,-2.53637 -0.03623,-3.83355c0.11595,-0.50003 0.28263,-0.98557 0.48554,-1.43486c0,-0.88411 0.15218,-1.76822 0.44205,-2.60884c0.07971,-0.36234 0.18842,-0.71743 0.31886,-1.07252c0.00724,-0.00724 0.1377,-0.37684 0.31886,-1.39863c0.2174,-1.25369 0.62322,-2.86973 1.23195,-4.90607c0.00724,-0.02175 0.01449,-0.05072 0.02174,-0.07247c1.18123,-3.79732 3.56542,-7.39897 7.29027,-11.00786c0.02899,-0.02899 0.05073,-0.05072 0.07971,-0.07247c1.88416,-1.78271 4.0582,-2.91321 6.46414,-3.377c0.43481,-0.07971 0.87686,-0.12319 1.32616,-0.13769c0.27538,-0.00724 1.00731,-0.05073 2.20303,-0.11595c0.04348,0 0.08696,-0.00725 0.13044,-0.00725c3.52919,-0.14493 6.86996,0.60873 9.96433,2.22477c3.57266,1.82619 6.3989,4.57272 8.40627,8.16712c0.94933,1.703 1.76097,3.76832 2.48565,6.33368c0.84787,2.90596 1.26819,5.46408 1.26819,7.81204z" fill="#f9a937" stroke="#ffffff" stroke-width="18.5"/><path d="M224.80946,252.4859v3.50745c0,2.07983 -0.36234,5.03651 -1.13774,9.30487c-0.31886,1.98562 -0.92759,4.02921 -1.80445,6.08005c-0.01449,0.02899 -0.02899,0.05073 -0.03623,0.07972c-1.55806,3.51469 -4.12342,6.58008 -7.63087,9.10921c-3.73934,2.68856 -7.60912,4.05095 -11.51514,4.05095c-1.57979,0 -3.08713,-0.24639 -4.50025,-0.72468c-5.00753,-1.61604 -8.96427,-4.68867 -11.75429,-9.13095c-0.60149,-0.97832 -1.19572,-2.18853 -1.9349,-3.95674c-0.01449,-0.04348 -0.02899,-0.07972 -0.05073,-0.12319c-0.91309,-2.28999 -1.39863,-4.12342 -1.52907,-5.77569c-0.02174,-0.28263 -0.10145,-0.96382 -0.36234,-2.29723c-0.09421,-0.50003 -0.14494,-1.00731 -0.14494,-1.51458v-3.10163c-0.31886,-1.2247 -0.34785,-2.53637 -0.03623,-3.83355c0.11595,-0.50003 0.28263,-0.98556 0.48554,-1.43486c0,-0.88411 0.15218,-1.76822 0.44205,-2.60884c0.07972,-0.36234 0.18842,-0.71743 0.31886,-1.07252c0.00724,-0.00724 0.13769,-0.37683 0.31886,-1.39863c0.2174,-1.25369 0.62322,-2.86973 1.23195,-4.90607c0.00724,-0.02174 0.01449,-0.05073 0.02174,-0.07247c1.18123,-3.79732 3.56542,-7.39897 7.29026,-11.00786c0.02899,-0.02899 0.05073,-0.05073 0.07972,-0.07247c1.88416,-1.7827 4.0582,-2.9132 6.46414,-3.377c0.43481,-0.07972 0.87686,-0.12319 1.32616,-0.13769c0.27538,-0.00724 1.00731,-0.05073 2.20302,-0.11595c0.04348,0 0.08696,-0.00724 0.13044,-0.00724c3.52919,-0.14494 6.86996,0.60873 9.96433,2.22477c3.57266,1.82619 6.39891,4.57272 8.40627,8.16712c0.94933,1.703 1.76097,3.76833 2.48565,6.33369c0.84787,2.90596 1.26819,5.46407 1.26819,7.81203z" fill="#f9a937" stroke="none" stroke-width="1"/><path d="M126.80392,267.48898c-0.0811,0.10321 -0.16218,0.20642 -0.25802,0.30963c-1.59236,1.82089 -3.65653,2.74239 -5.10144,3.27317c-2.73502,1.07631 -5.07932,2.38116 -6.95919,3.87769c-0.09584,0.0811 -0.19167,0.15481 -0.29488,0.22853c-1.82826,1.31959 -4.11359,2.01993 -7.00342,2.11577c-0.09584,0.00737 -0.19167,0.00737 -0.28751,0.00737c-2.24109,0 -4.39373,-0.79617 -6.22198,-2.30007c-0.89201,-0.72983 -1.62922,-1.59236 -2.19686,-2.54335c-1.1869,0.45707 -2.46226,0.69297 -3.7671,0.69297c-0.48655,0 -0.95099,-0.03686 -1.40806,-0.11795c-0.30963,-0.04423 -0.95837,-0.13269 -1.96096,-0.27277c-0.20642,-0.02212 -1.1869,-0.11795 -5.54376,-0.47918c-0.04423,0 -0.08847,-0.00737 -0.13269,-0.01474c-3.12574,-0.30963 -5.18253,-0.89201 -6.89284,-1.94621c-0.0811,-0.04423 -0.16218,-0.09584 -0.23591,-0.15481c-2.62444,-1.74717 -4.19468,-4.65912 -4.19468,-7.77749c0,-5.04247 3.3469,-8.9865 8.33039,-9.81953c0.06635,-0.00737 0.12532,-0.01474 0.19167,-0.02949c0.59713,-0.0811 1.22376,-0.11795 1.86512,-0.12532c0.01474,-0.11058 0.03686,-0.22116 0.05898,-0.33911c0.02949,-0.16218 0.06635,-0.32437 0.11058,-0.48655c0.65611,-2.60969 1.33434,-5.60274 2.03468,-8.96438c-2.6613,-0.42758 -4.46744,-1.96096 -5.12355,-2.52123c-1.12792,-0.95837 -1.9757,-2.21161 -2.44751,-3.61229c-1.13529,-3.41325 -0.25065,-7.12874 2.31482,-9.70158c1.58499,-1.58499 3.56069,-2.62444 5.69858,-3.00042c0.46444,-0.0811 1.1869,-0.21379 2.17474,-0.41283l0.11058,-0.02212c2.18949,-0.40546 4.70335,-0.70034 7.68902,-0.89939c2.15263,-0.14744 2.15263,-0.14744 2.477,-0.14744c0.33911,0 0.67823,0.02212 1.01733,0.06635c3.15523,0.39809 5.89762,2.18212 7.5121,4.90977c0.75195,1.26061 1.34908,2.80137 1.90199,4.86553c0.33175,1.22376 0.49393,1.76191 0.56028,1.96096c0.14744,0.34648 0.36123,0.82566 0.63399,1.43755c0.11058,0.24328 0.20642,0.49393 0.28751,0.74458c0.00737,0.01474 0.14007,0.39809 0.64874,1.50389c0.03686,0.08847 0.07372,0.16955 0.11058,0.25802c0.99523,2.37379 2.55072,6.08929 4.66649,11.1465c0.03686,0.09584 0.0811,0.19167 0.11795,0.28751c0.22853,0.61188 0.5013,1.33434 0.81829,2.16c2.64655,-0.19904 5.21939,0.64136 7.34253,2.38116c0.21379,0.16955 0.4202,0.35385 0.61188,0.54553c2.01993,2.01993 2.44751,4.52642 2.58758,5.35209c0.03686,0.25065 0.06635,0.5013 0.08847,0.75932c0.24328,3.30266 -0.91413,5.52165 -1.93147,6.80438zM92.35446,272.81158c-0.9215,-0.28751 -1.78403,-0.72983 -2.53598,-1.29747c0.75195,0.57501 1.6071,1.02471 2.53598,1.29747z" fill="#00cccc" stroke="#ffffff" stroke-width="20"/><path d="M126.8575,268.10872c-0.0811,0.10321 -0.16218,0.20642 -0.25802,0.30963c-1.59236,1.82089 -3.65653,2.74239 -5.10144,3.27317c-2.73502,1.07631 -5.07932,2.38116 -6.95919,3.87769c-0.09584,0.0811 -0.19167,0.15481 -0.29488,0.22853c-1.82826,1.31959 -4.11359,2.01993 -7.00342,2.11577c-0.09584,0.00737 -0.19167,0.00737 -0.28751,0.00737c-2.24109,0 -4.39373,-0.79617 -6.22198,-2.30007c-0.89201,-0.72983 -1.62922,-1.59236 -2.19686,-2.54335c-1.1869,0.45707 -2.46226,0.69297 -3.7671,0.69297c-0.48655,0 -0.95099,-0.03686 -1.40806,-0.11795c-0.30963,-0.04423 -0.95837,-0.13269 -1.96096,-0.27277c-0.20642,-0.02212 -1.1869,-0.11795 -5.54376,-0.47918c-0.04423,0 -0.08847,-0.00737 -0.13269,-0.01474c-3.12574,-0.30963 -5.18253,-0.89201 -6.89284,-1.94621c-0.0811,-0.04423 -0.16218,-0.09584 -0.23591,-0.15481c-2.62444,-1.74717 -4.19468,-4.65912 -4.19468,-7.77749c0,-5.04247 3.3469,-8.9865 8.33039,-9.81953c0.06635,-0.00737 0.12532,-0.01474 0.19167,-0.02949c0.59713,-0.0811 1.22376,-0.11795 1.86512,-0.12532c0.01474,-0.11058 0.03686,-0.22116 0.05898,-0.33911c0.02949,-0.16218 0.06635,-0.32437 0.11058,-0.48655c0.65611,-2.60969 1.33434,-5.60274 2.03468,-8.96438c-2.6613,-0.42758 -4.46744,-1.96096 -5.12355,-2.52123c-1.12792,-0.95837 -1.9757,-2.21161 -2.44751,-3.61229c-1.13529,-3.41325 -0.25065,-7.12874 2.31482,-9.70158c1.58499,-1.58499 3.56069,-2.62444 5.69858,-3.00042c0.46444,-0.0811 1.1869,-0.21379 2.17474,-0.41283l0.11058,-0.02212c2.18949,-0.40546 4.70335,-0.70034 7.68902,-0.89939c2.15263,-0.14744 2.15263,-0.14744 2.477,-0.14744c0.33911,0 0.67823,0.02212 1.01733,0.06635c3.15523,0.39809 5.89762,2.18212 7.5121,4.90977c0.75195,1.26061 1.34908,2.80137 1.90199,4.86553c0.33175,1.22376 0.49393,1.76191 0.56028,1.96096c0.14744,0.34648 0.36123,0.82566 0.63399,1.43755c0.11058,0.24328 0.20642,0.49393 0.28751,0.74458c0.00737,0.01474 0.14007,0.39809 0.64874,1.50389c0.03686,0.08847 0.07372,0.16955 0.11058,0.25802c0.99523,2.37379 2.55072,6.08929 4.66649,11.1465c0.03686,0.09584 0.0811,0.19167 0.11795,0.28751c0.22853,0.61188 0.5013,1.33434 0.81829,2.16c2.64655,-0.19904 5.21939,0.64136 7.34253,2.38116c0.21379,0.16955 0.4202,0.35385 0.61188,0.54553c2.01993,2.01993 2.44751,4.52642 2.58758,5.35209c0.03686,0.25065 0.06635,0.5013 0.08847,0.75932c0.24328,3.30266 -0.91413,5.52165 -1.93147,6.80438zM92.40804,273.43131c-0.9215,-0.28751 -1.78403,-0.72983 -2.53598,-1.29747c0.75195,0.57501 1.6071,1.02471 2.53598,1.29747z" fill="#f9a937" stroke="none" stroke-width="1"/><path d="M120.50724,263.0692c-0.30373,0.34648 -0.93035,0.69149 -1.8806,1.03725c-3.54668,1.38373 -6.5928,3.09109 -9.14278,5.12282c-0.47624,0.34575 -1.32033,0.53963 -2.53008,0.58313c-0.34648,0 -0.70329,-0.15186 -1.06968,-0.45338c-0.36786,-0.30226 -0.55143,-0.64874 -0.55143,-1.03725c0,-0.51899 0.58386,-1.18837 1.75086,-2.01108c0.8205,-0.51826 1.64322,-1.05936 2.4652,-1.62111c0.04202,-0.21527 -0.67085,-2.76598 -2.14231,-7.65143c-2.37969,-0.04276 -6.12246,0.73426 -11.22686,2.33324c-0.30373,0.08699 -0.47697,0.25949 -0.51973,0.51899c-0.0435,0.25949 -0.10837,0.69076 -0.19462,1.296c-0.08331,0.12975 -0.16587,0.32363 -0.24844,0.58313c0,0.17324 0.24844,0.35754 0.74605,0.55216c0.49614,0.19536 0.81092,0.37966 0.93993,0.55143c0.12975,0.17324 0.19462,0.3885 0.19462,0.64874c0,0.51826 -0.22705,1.00555 -0.68117,1.45966c-0.45338,0.45338 -1.0048,0.68044 -1.65281,0.68044c0.04276,0 -0.73573,-0.10763 -2.33472,-0.32363c-0.30299,-0.04276 -2.26985,-0.216 -5.9013,-0.51826c-1.72948,-0.1725 -2.87509,-0.432 -3.4361,-0.77848c-0.38925,-0.25949 -0.58386,-0.60525 -0.58386,-1.03725c0,-1.03798 0.51899,-1.64322 1.55623,-1.81573c0.6045,-0.08626 1.38299,-0.0435 2.33398,0.12975c0.216,0.08699 1.92262,0.23738 5.12282,0.45338c0.25949,-1.81573 0.69149,-4.34507 1.29674,-7.58655c1.3395,-5.31744 2.74534,-12.06137 4.21533,-20.23179c-0.43274,-0.08551 -0.88612,-0.12975 -1.36161,-0.12975c-0.82198,0 -2.04279,0.23812 -3.66463,0.71361c-1.62037,0.47624 -2.82053,0.71361 -3.59903,0.71361c-0.30226,0 -0.73499,-0.23664 -1.29674,-0.71361c-0.17324,-0.51899 -0.05455,-0.98269 0.35607,-1.39405c0.41062,-0.41062 0.86474,-0.65906 1.36235,-0.74605c0.49687,-0.08626 1.28569,-0.23738 2.36716,-0.45412c1.85849,-0.34575 4.10622,-0.6045 6.74319,-0.77848c1.25324,-0.08551 1.90199,-0.12975 1.94548,-0.12975c0.69149,0.08699 1.21048,0.42168 1.55623,1.0048c0.34575,0.58386 0.69149,1.52379 1.03725,2.82053c0.432,1.60046 0.72319,2.57284 0.8758,2.91859c0.15113,0.34648 0.39957,0.90749 0.74605,1.68599c0.17177,0.51826 0.49614,1.29674 0.97237,2.33398c0.99448,2.37821 2.54998,6.09593 4.66944,11.15313c0.77775,2.07522 2.01035,5.23193 3.69633,9.46789c0.73426,-0.08626 1.68599,-0.45412 2.85224,-1.10212c1.16773,-0.64874 2.03173,-0.97237 2.59495,-0.97237c0.51826,0 1.01513,0.19462 1.49136,0.58313c0.12975,0.12975 0.23591,0.45412 0.32363,0.97237c0.0435,0.56323 -0.02138,0.95246 -0.19315,1.16846zM106.11116,253.66913c-0.73794,-1.42649 -1.66903,-3.58944 -2.79547,-6.48738c-0.43347,-0.99448 -1.60268,-3.5887 -3.50982,-7.78485l-3.20683,16.3482c3.88285,-0.73426 6.92307,-1.29674 9.12361,-1.68672c0.25876,-0.17177 0.3885,-0.30226 0.3885,-0.38925z" fill="#ffffff" stroke="none" stroke-width="1"/><path d="M81.75156,264.48872c-0.51604,5.56588 -2.18949,9.79005 -5.10144,12.86418c-1.69556,1.7914 -4.20942,3.20683 -8.39674,4.71072c-0.0811,0.02949 -0.16955,0.05898 -0.25802,0.08847c-2.00519,0.64136 -4.19468,0.97311 -6.50212,0.97311c-3.51645,0 -6.78226,-0.69297 -9.70896,-2.0568c-4.32738,-2.01993 -6.48001,-4.84342 -7.54896,-7.22458c-0.15481,-0.25802 -0.317,-0.52342 -0.47181,-0.81092c-0.44232,-0.80355 -0.75195,-1.67345 -0.89939,-2.58021c-0.21379,-1.26798 -0.55291,-3.17734 -1.01733,-5.71332c-0.08847,-0.48655 -0.13269,-0.97311 -0.13269,-1.46703v-6.41366c0,-0.79617 0.06635,-1.96096 0.54553,-5.11618c0.46444,-3.08888 0.66348,-4.04724 1.03208,-4.99086c0.96574,-2.57284 3.85557,-10.13653 10.85899,-11.63305c2.30007,-0.48655 4.88765,-0.55291 7.33516,-0.28751c1.73242,-2.77926 4.82868,-4.43796 8.34513,-4.43796c6.10404,0 9.48042,4.02512 10.11442,8.00602c0.06635,0.4202 0.09584,0.84778 0.09584,1.27536v10.23974c0,0.00737 0,0.01474 0,0.01474c0,0.00737 0,0.00737 0,0.01474c0,0 0,0 0,0.00737c0,0.67085 -0.08847,1.31222 -0.23591,1.93884c1.4228,1.61447 2.21161,3.60492 2.24847,5.73544c0.04423,2.13789 -0.05898,4.4527 -0.30226,6.86336z" fill="#f9a937" stroke="none" stroke-width="1"/><path d="M73.94384,257.76396c0.04202,1.81573 -0.0435,3.78332 -0.25949,5.90057c-0.34722,3.71845 -1.31886,6.41956 -2.91859,8.10554c-0.73573,0.77848 -2.48585,1.6646 -5.25183,2.65835c-1.21123,0.38925 -2.55146,0.58386 -4.0207,0.58386c-2.33398,0 -4.43133,-0.432 -6.28981,-1.29747c-2.03247,-0.95025 -3.28572,-2.18212 -3.76121,-3.69633c-0.1725,-0.216 -0.36786,-0.51826 -0.58313,-0.90749c-0.21748,-1.29674 -0.56248,-3.24148 -1.03798,-5.83569v-6.41956c0,-0.60525 0.15113,-1.90199 0.45412,-3.89095c0.30151,-1.9875 0.49687,-3.08962 0.58386,-3.30635c1.51274,-4.0207 3.17734,-6.22494 4.99233,-6.61492c0.8205,-0.17177 1.72874,-0.25949 2.72322,-0.25949c3.19873,0 6.09593,0.77848 8.68941,2.33472c0.17177,0.08699 0.3885,0.12975 0.648,0.12975c0.0435,-0.12975 0.08626,-0.66938 0.13049,-1.62111c0.04276,0 0.04276,-0.75563 0,-2.26911c-0.04423,-1.03798 0.05824,-1.77223 0.30667,-2.20498c0.24696,-0.43127 0.7431,-0.64874 1.48473,-0.64874c1.27536,0 1.9757,0.38925 2.09955,1.16773c0,0.0435 0,1.64322 0,4.79845c0,2.37821 0,3.86958 0,4.47408c0,0.73573 0,1.0601 0,0.97237c-0.17398,0.64874 -0.47624,1.03725 -0.90824,1.16699c-1.16625,0.38925 -1.96686,0.4121 -2.39886,0.06487c-0.21674,0 -0.45338,-0.06487 -0.71361,-0.19462c-0.21674,-0.6045 -0.69149,-1.40363 -1.42649,-2.39886c-0.99523,-0.8205 -2.29197,-1.53412 -3.89022,-2.14009c-1.60046,-0.6045 -2.96208,-0.90749 -4.08557,-0.90749c-1.42722,0 -2.5721,1.10212 -3.43683,3.30709c-1.21123,3.02622 -1.75086,6.93782 -1.62111,11.737c0.08626,2.11872 0.15113,3.45895 0.19536,4.01996c0.21527,1.77297 0.69149,3.28572 1.42649,4.53896c0.51899,0.86547 1.31812,1.57909 2.3996,2.14009c1.08,0.56248 2.13936,0.86474 3.17734,0.90749c5.14494,0.21674 8.1483,-2.05311 9.01451,-6.8088c0.47549,-2.54998 0.51826,-4.69008 0.12975,-6.41956c-0.08772,-0.34575 -0.04497,-0.81092 0.12975,-1.39478c0.17103,-0.58313 0.92888,-0.93993 2.26911,-1.06968c0.30226,0 0.66938,0.14081 1.10286,0.42168c0.42905,0.28309 0.64652,0.57428 0.64652,0.87654z" fill="#ffffff" stroke="none" stroke-width="1"/><path d="M159.90153,243.56204c-0.02949,0.12532 -0.05161,0.25065 -0.08847,0.37597c-0.11058,0.46444 -0.33911,1.56287 -0.56764,3.70813c0,0.03686 0,0.06635 -0.00737,0.08847c1.26061,5.07196 -0.86253,8.16083 -2.27058,9.56889c-0.08847,0.09584 -0.1843,0.1843 -0.28751,0.27277c-1.37857,1.25324 -3.78922,2.74977 -7.38677,2.74977c-1.7914,0 -3.46485,-0.39809 -4.92451,-1.12792c0.03686,2.01256 0.05898,4.78445 0.05898,8.63264c1.32696,0.46444 2.54335,1.21639 3.57543,2.20423c2.04942,1.96833 3.16997,4.60015 3.16997,7.40888c0,4.17257 -2.40328,7.7996 -6.27359,9.45831c-0.09584,0.04423 -0.19904,0.08847 -0.29488,0.12532c-1.29747,0.49393 -2.75714,0.7372 -4.46744,0.7372c-0.61925,0 -1.28273,-0.02949 -2.00519,-0.09584c-0.44232,-0.02212 -1.09106,-0.01474 -1.85775,0.00737c-1.39331,0.15481 -3.35427,0.30963 -5.97872,0.45707c-0.05161,0 -0.10321,0.00737 -0.16218,0.00737c-0.34648,0.01474 -0.67823,0.02212 -1.0026,0.02212c-4.69598,0 -8.12397,-1.48915 -10.19551,-4.41584c-0.04423,-0.05898 -0.0811,-0.11795 -0.11795,-0.17693c-2.1084,-3.14785 -2.16737,-7.12874 -0.16218,-10.37981c0.01474,-0.03686 0.03686,-0.06635 0.05898,-0.10321c1.27536,-2.00519 3.14048,-3.43537 5.5585,-4.27577c0.02949,-1.4228 0.02212,-3.20683 -0.02212,-5.3226c-1.20164,0.5013 -2.58758,0.79617 -4.14308,0.79617c-4.10622,0 -7.49735,-2.44014 -8.67688,-6.14827c-0.24328,-0.75195 -0.47181,-1.85038 -1.0026,-4.32738c-0.02212,-0.08847 -0.03686,-0.17693 -0.05161,-0.26539l-1.09106,-6.09666c-0.03686,-0.13269 -0.08847,-0.28751 -0.14744,-0.46444c-0.56764,-1.61447 -0.83304,-2.98567 -0.83304,-4.31264c0,-1.64396 0.47918,-4.12834 2.74977,-6.60534c1.14266,-1.25324 3.22158,-2.87509 6.56847,-3.3985c0.41283,-0.06635 0.83304,-0.10321 1.25324,-0.10321h8.15346c0.1843,0 0.3686,0.00737 0.55291,0.02212c3.11099,0.11058 5.89762,0.10321 8.28615,-0.00737c3.33953,-0.14744 6.67168,-0.43495 9.93749,-0.85515c0.3686,-0.11795 0.76669,-0.23591 1.19427,-0.33911c0.40546,-0.10321 0.81829,-0.16955 1.23113,-0.21379c3.14048,-0.28751 6.06717,0.61925 8.34513,2.56547c2.82348,2.42539 4.06936,6.09666 3.32478,9.8269z" fill="#f9a937" stroke="none" stroke-width="1"/><path d="M193.05158,237.12739c-0.00142,0.23006 -0.01146,0.45302 -0.02935,0.67676c-0.51242,5.57585 -2.9625,10.22218 -7.08822,13.45366c-2.48191,1.95379 -5.86017,3.49523 -10.29512,4.68749c-0.01494,0.00938 -0.03065,0.01091 -0.04636,0.01243c0.09838,0.76741 0.20518,1.62121 0.31174,2.55432c4.42218,-0.2634 7.17262,1.76843 8.51937,3.14389c1.22229,1.23692 2.68083,3.3547 2.99464,6.58273c0.50316,5.17585 -2.43191,9.72661 -7.30375,11.31812c-1.89797,0.62056 -4.0008,0.92806 -6.25503,0.90142l-0.04713,0.00458c-0.13352,0.01298 -0.39195,0.04603 -0.82719,0.13591c-2.28391,0.48366 -2.99252,0.61598 -3.44654,0.67597c-0.39827,0.0625 -1.42584,0.25754 -3.74848,0.83218c-2.67073,0.66398 -4.47608,1.0139 -5.85839,1.14828c-3.50293,0.34053 -6.4998,-0.3116 -8.91841,-1.94757c-4.07407,-2.68013 -5.55943,-7.60193 -3.66208,-11.98046c1.30446,-3.21886 3.43609,-4.86111 5.12342,-5.69111c0.72498,-0.37175 1.51889,-0.68679 2.36529,-0.95141l-0.00076,-0.00785c-0.35451,-1.28164 -0.58347,-2.82126 -0.73639,-4.88361l-0.31839,-3.27516c-0.20955,-0.60597 -0.40546,-1.31633 -0.48868,-2.17242l-0.41994,-4.31976c-0.03556,-0.20268 -0.07188,-0.41321 -0.10036,-0.62451c-0.08639,-0.56244 -0.20888,-1.41472 -0.36596,-2.54112c-0.06763,-0.53256 -0.14922,-1.12717 -0.24401,-1.776c-2.74915,-0.2243 -5.29092,-1.33295 -7.32249,-3.22853c-1.22959,-1.149 -2.10411,-2.64172 -2.50159,-4.28388c-0.18021,-0.71188 -0.2968,-1.42202 -0.36323,-2.10533c-0.28785,-2.96099 0.71575,-5.84933 2.75751,-7.92682c0.08661,-0.0877 0.16614,-0.16679 0.25352,-0.24664c2.19404,-2.06059 5.08413,-3.40394 8.82912,-4.10892c0.09348,-0.01701 0.18697,-0.03403 0.2726,-0.05028l4.88994,-0.75286c0.15632,-0.02312 0.32126,-0.03916 0.47834,-0.05443l4.96379,-0.48255c1.52621,-0.20387 2.74435,-0.31436 3.81,-0.36246c0.08716,-0.00055 0.18218,-0.00186 0.26933,-0.0024c2.64541,-0.02725 5.86078,0.26273 9.83059,0.89163c0.2017,0.03589 0.41201,0.07887 0.61448,0.12262c0.71407,0.16843 1.2561,0.36152 3.37616,1.20989c1.6895,0.66031 3.34746,1.64873 4.92372,2.93845c2.59412,2.05496 4.256,4.4701 4.96383,7.18413c0.00382,0.03927 0.01549,0.07778 0.02792,0.12414c0.62034,2.54811 0.83173,3.90709 0.81252,5.17749z" fill="#f9a937" stroke="none" stroke-width="1"/><path d="M182.93517,237.1523c-0.29242,3.19024 -1.55862,5.66091 -3.79616,7.41256c-1.54942,1.22095 -3.94992,2.26696 -7.19959,3.14103c-3.97295,1.08392 -6.40089,1.83133 -7.28686,2.2433l0.34916,3.59168c0.28083,1.46164 0.64806,4.28489 1.10095,8.47062c0.31867,2.80498 0.79243,5.06052 1.42045,6.7659c0.05457,0.08825 0.39779,0.05489 1.02968,-0.1001c0.86424,-0.13 2.18036,-0.37449 3.94772,-0.73183c0.35707,-0.12748 0.89485,-0.2963 1.6142,-0.50577c1.26756,-0.26276 2.15868,-0.11629 2.67475,0.43767c0.30549,0.29616 0.48775,0.74383 0.54593,1.34232c0.11201,1.1522 -0.33846,1.89289 -1.35283,2.2238c-1.01351,0.33162 -2.17384,0.49041 -3.47536,0.47739c-0.74557,-0.01949 -1.68907,0.09443 -2.82547,0.34444c-1.64006,0.34575 -2.5524,0.52721 -2.73697,0.54515c-0.96226,0.14112 -2.5222,0.47908 -4.67834,1.01295c-2.15614,0.53388 -3.69544,0.84763 -4.61595,0.93711c-1.475,0.14339 -2.56192,-0.03557 -3.26056,-0.53453c-0.59315,-0.36809 -0.75496,-0.82568 -0.48147,-1.37236c0.2574,-0.68783 0.58862,-1.122 0.98894,-1.30204c0.88479,-0.46499 2.1554,-0.77799 3.81419,-0.93925c1.15063,-0.11186 2.65711,-0.39626 4.51992,-0.85642c-0.16865,-0.77248 -0.30305,-1.91853 -0.4043,-3.44123c-0.03566,-0.36679 -0.13654,-0.91513 -0.29918,-1.64221c-0.00443,-0.04556 -0.05006,-0.15608 -0.13782,-0.33307c-0.08698,-0.17706 -0.13498,-0.31194 -0.14399,-0.40462c-0.16538,-1.7012 -0.28942,-2.73251 -0.37078,-3.09643c-0.24632,-0.62538 -0.43378,-1.83605 -0.56262,-3.63435c-0.24578,-2.52823 -0.38199,-3.92941 -0.40887,-4.20586c-0.02688,-0.27647 -0.10109,-0.55863 -0.22206,-0.84894c-0.12162,-0.28866 -0.18404,-0.45781 -0.18847,-0.50337l-0.44918,-4.62057c0.08055,0.8286 -0.53304,-3.56667 -1.83992,-13.18511c-0.03123,-0.32124 -0.19404,-0.5607 -0.48766,-0.71847c-0.59476,0.1046 -1.51139,0.35624 -2.75068,0.75499c-1.23999,0.39962 -2.15969,0.62777 -2.75739,0.68588c-1.1522,0.11201 -2.11065,-0.18886 -2.878,-0.9055c-0.07757,-0.31673 -0.12951,-0.61454 -0.15646,-0.89179c-0.04024,-0.41391 0.06669,-0.74937 0.31992,-1.00708c0.93713,-0.88077 2.43343,-1.51461 4.48818,-1.90067c1.60273,-0.24857 3.22988,-0.49871 4.878,-0.75329c0.23013,-0.02237 0.55292,-0.05375 0.96684,-0.09399c0.4147,-0.04031 0.71393,-0.0694 0.8985,-0.08735c0.36835,-0.03581 1.45144,-0.1411 3.24767,-0.31572c1.28435,-0.17164 2.34386,-0.27463 3.17777,-0.30892c2.13533,-0.02206 4.92874,0.24154 8.37605,0.78884c0.14281,0.03369 0.8667,0.31137 2.17341,0.83446c0.86892,0.33414 1.75871,0.87478 2.66794,1.62361c1.10639,0.86842 1.77251,1.73444 1.9958,2.59595c0.38672,1.5885 0.57711,2.59275 0.57101,3.01117zM178.6994,236.61743c-1.21255,-3.85262 -6.28656,-5.3684 -15.22596,-4.54694c-0.23091,0.02245 -0.5629,0.19584 -0.99549,0.51698c0.04505,0.4634 0.28061,2.16887 0.70677,5.1172c0.2346,1.94024 0.63348,4.84446 1.19434,8.71366c0.09032,-0.00878 0.72607,-0.14035 1.90551,-0.39613c0.366,-0.03558 0.86273,-0.15364 1.49168,-0.35511c2.16554,-0.58394 4.35079,-1.19359 6.5573,-1.82909c2.64125,-0.91006 4.10413,-2.52377 4.38865,-4.84113c0.18123,-0.99835 0.17399,-1.79048 -0.0228,-2.37945z" fill="#ffffff" stroke="none" stroke-width="1"/><path d="M151.94859,241.97263c-0.30226,1.21123 -0.56175,2.85297 -0.77775,4.9282c-0.08772,1.03798 -0.04497,1.8806 0.12975,2.52934c0.30078,1.08147 0.28087,1.79509 -0.06487,2.14009c-0.47624,0.432 -1.12424,0.648 -1.94548,0.648c-0.95173,0 -1.57983,-0.28235 -1.8806,-0.84852c-0.04497,-1.74127 -0.02285,-3.37491 0.06487,-4.89945c0.08478,-1.8725 0.12975,-2.85224 0.12975,-2.93923c-0.04497,0 -0.10911,-0.0435 -0.19462,-0.13122c-4.02144,0.17471 -7.80402,0.43421 -11.34849,0.7807c-0.08699,0.43421 -0.08699,1.12644 0,2.07891c0.17177,1.34319 0.25949,2.12315 0.25949,2.3384c-0.1725,1.34319 -0.25949,3.3351 -0.25949,5.97797c0.17177,1.12644 0.25949,5.9566 0.25949,14.48971v4.74389c0,0.73646 0.10689,1.2562 0.32142,1.55919h3.98163c0.72762,-0.08626 1.31591,0.08699 1.76634,0.51899c0.44896,0.43274 0.6738,0.95099 0.6738,1.5555c0,0.95025 -0.45338,1.62111 -1.36161,2.01108c-0.56248,0.21527 -1.55623,0.25949 -2.98272,0.12975c-0.69149,-0.04423 -1.7081,-0.04423 -3.04833,0c-1.21048,0.15039 -3.15523,0.30151 -5.83569,0.45338c-2.33472,0.08626 -3.76121,-0.23812 -4.2802,-0.97237c-0.34648,-0.51826 -0.34648,-1.05936 0,-1.62111c0.6045,-0.95025 2.18286,-1.42649 4.73432,-1.42649c0.90749,0 1.46851,-0.07519 1.68524,-0.22632c0.216,-0.15113 0.32437,-0.44306 0.32437,-0.87506c0,-0.38777 0,-0.75416 0,-1.09991c0,-0.64652 0,-1.59604 0,-2.84708c0.12975,-2.19907 0.12975,-5.47889 0,-9.83649c-0.17324,-6.25516 -0.08699,-11.75469 0.25949,-16.5008c-0.0435,-0.04276 -0.10837,-0.10763 -0.1961,-0.19462c-1.56508,0.08699 -4.08631,0.0435 -7.56369,-0.13049c-0.39146,0 -1.71842,0.08772 -3.97794,0.26023c0.56175,3.93445 0.90749,6.89579 1.03725,8.88403c0,0.25949 -0.0435,0.84336 -0.12975,1.75086c-0.0435,0.648 -0.58386,0.97237 -1.62111,0.97237c-0.56248,0 -0.88612,-0.19315 -0.97237,-0.5787c-0.0435,-0.08478 -0.30299,-1.24366 -0.77848,-3.47296c-0.25949,-1.45745 -0.62736,-3.51572 -1.10212,-6.17407c0,-0.16955 -0.15186,-0.7055 -0.45338,-1.6071c-0.25802,-0.72909 -0.38703,-1.28642 -0.38703,-1.67198c0,-0.2993 0.2042,-0.67601 0.6163,-1.12497c0.41062,-0.44969 1.02692,-0.74015 1.84817,-0.86916c0.12975,0 0.33395,0 0.6163,0c0.28014,0 0.50719,0 0.68044,0c5.14494,0 7.39267,0 6.74393,0c3.50171,0.13049 6.61418,0.13049 9.3374,0c3.89022,-0.17177 7.73694,-0.51826 11.54238,-1.03725c0.25949,-0.12975 0.648,-0.25949 1.16625,-0.3885c0.95173,-0.08626 1.72948,0.12975 2.33546,0.64874c0.6045,0.51751 0.8205,1.20975 0.648,2.07449z" fill="#ffffff" stroke="none" stroke-width="1"/><path d="M216.83582,255.99407c0,1.57255 -0.34132,4.22922 -1.02034,7.96784c-0.21233,1.36022 -0.63699,2.78422 -1.27543,4.27126c-0.97832,2.21027 -2.64508,4.16545 -5.00318,5.86482c-2.35883,1.69937 -4.64302,2.54942 -6.85256,2.54942c-0.72251,0 -1.38124,-0.1058 -1.9762,-0.31814c-3.22989,-1.01962 -5.73655,-2.95307 -7.52144,-5.80105c-0.34132,-0.55148 -0.787,-1.48704 -1.3392,-2.80451c-0.59496,-1.48704 -0.92397,-2.63421 -0.98773,-3.44222c-0.06377,-0.80657 -0.2232,-1.86895 -0.47829,-3.18641v-4.71765c0.16957,-0.08406 0.08479,-0.21161 -0.25509,-0.38191h0.38263c0,-0.21233 0.08406,-0.61597 0.25509,-1.21094c0.16885,-0.59496 0.25509,-1.04137 0.25509,-1.3392c0,-0.25509 -0.06377,-0.48843 -0.19131,-0.70149c0.16885,0 0.31814,-0.06377 0.44567,-0.19131c-0.04276,-0.08479 -0.14929,-0.12755 -0.31814,-0.12755c0.04203,-0.04203 0.11667,-0.1058 0.2232,-0.19131c0.1058,-0.08479 0.18045,-0.14856 0.22392,-0.19131c-0.04348,-0.04276 -0.09566,-0.07464 -0.16015,-0.09638c-0.06377,-0.02029 -0.1174,-0.05218 -0.15943,-0.09566c0.25581,-0.67975 0.48843,-1.61459 0.70149,-2.80451c0.16885,-0.97687 0.51017,-2.31535 1.01962,-4.01545c0.76526,-2.46391 2.50738,-5.01405 5.2271,-7.64971c0.76526,-0.72178 1.59357,-1.16818 2.48637,-1.33848c0.12755,0 0.95585,-0.04276 2.48637,-0.12827c2.12476,-0.08406 4.12125,0.36161 5.99164,1.3392c2.16824,1.10513 3.86689,2.76247 5.09956,4.97202c0.63844,1.14717 1.23268,2.6987 1.78489,4.65316c0.63844,2.16679 0.95658,4.03718 0.95658,5.60901v3.50672zM212.62906,248.91903c-0.25364,-0.59423 -0.55076,-1.35949 -0.88918,-2.29506c-0.42466,-1.91242 -1.68488,-3.67484 -3.78065,-5.29088c-2.09649,-1.61459 -4.03356,-2.33636 -5.81265,-2.16679c-0.8044,0.08551 -2.16027,1.42472 -4.0669,4.01617c-0.93194,1.23268 -1.86315,3.69731 -2.79436,7.3939c-0.84715,3.44222 -1.25007,6.09817 -1.20659,7.96784c0.08406,2.37985 0.21161,4.03718 0.38118,4.97129c0.29566,1.74285 0.93121,3.33642 1.90518,4.78143c0.93194,1.27471 1.65227,2.10301 2.16027,2.48637c1.90518,1.36022 3.70455,2.03925 5.39958,2.03925c0.38046,0 0.74062,-0.04203 1.07977,-0.12755c0.8044,-0.12755 1.75662,-0.65801 2.85813,-1.59357c0.93194,-0.85005 1.63052,-1.6356 2.09722,-2.35883c0.63482,-1.06166 1.22833,-2.65522 1.77908,-4.7807c0.84642,-3.10163 1.27108,-6.39528 1.27108,-9.88027c0.00145,-1.86895 -0.12609,-3.59005 -0.38118,-5.16261z" fill="#ffffff" stroke="none" stroke-width="1"/><g stroke="none" stroke-width="1"><path d="M264.79425,271.36886c0.19398,0.73265 -0.13404,1.84411 -0.98741,3.33271c-0.8517,1.48944 -1.75252,2.55094 -2.70247,3.18535c-0.94994,0.63441 -2.42356,1.04985 -4.41919,1.24467c-1.60766,0.14653 -3.10542,-0.56197 -4.49246,-2.12384c-1.3887,-1.56187 -2.17879,-3.29525 -2.37361,-5.1993c-0.537,-5.36997 -1.21886,-9.22719 -2.04642,-11.57083c-0.09824,-0.58528 -0.36549,-1.45114 -0.80425,-2.59923c-0.43792,-1.14643 -1.43615,-2.08721 -2.99469,-2.81986c-1.16974,-0.43876 -2.36195,-0.90249 -3.57915,-1.3912c-0.19482,-0.04829 -0.43792,-0.04829 -0.73015,0c-0.68186,0.19482 -2.09554,0.58528 -4.2377,1.1714v1.3912v5.71215c0,0.09824 0.03663,0.56197 0.1099,1.3912c0.07326,0.83089 0.1099,1.41701 0.1099,1.75752c0.09741,0.83089 0.22063,3.028 0.36632,6.59049c0.34051,0.14736 0.70684,0.14736 1.09814,0c1.31793,-0.537 2.48933,-0.65855 3.51504,-0.36549c0.73265,0.24477 1.09814,0.83089 1.09814,1.75752c0,1.36789 -0.72016,2.18545 -2.16048,2.4527c-1.44032,0.26891 -3.55167,0.64773 -6.33407,1.1356c-2.24623,0.43876 -3.90634,0.65855 -4.9795,0.65855c-1.66011,0 -2.8082,-0.39047 -3.44178,-1.1714c-0.14653,-1.61182 0.68269,-2.58674 2.48933,-2.92976c1.46529,-0.14653 2.92976,-0.3172 4.39338,-0.51285c0.19482,-0.24311 0.29389,-0.51202 0.29389,-0.80508c-0.04995,-1.12311 -0.31804,-5.15101 -0.80591,-12.08368c-0.14653,-1.65928 -0.19565,-2.92976 -0.14653,-3.8081c-0.87918,-0.04829 -1.46529,-0.12155 -1.75752,-0.21979c-0.73265,-0.24394 -1.19721,-0.70767 -1.3912,-1.3912v-0.22063c0.09658,-0.04829 0.16984,-0.29306 0.21979,-0.73181c0.68269,-1.07399 1.56187,-1.48861 2.6367,-1.2455c0.09658,-0.29306 0.07326,-1.07316 -0.0741,-2.34281c-0.43876,-4.63732 -0.7085,-8.34801 -0.80508,-11.13124c-0.19565,-0.19398 -0.61109,-0.24394 -1.2455,-0.14653c-0.97659,0.19565 -1.48944,0.29306 -1.53773,0.29306c-2.6367,0 -3.90634,-0.63357 -3.8081,-1.90405c0.09741,-1.1714 1.09814,-1.87824 3.00219,-2.12384c1.7084,-0.34051 5.2967,-0.87834 10.76575,-1.61099c-0.24477,0.04912 1.48861,0.12155 5.1993,0.21979c4.29514,0.34218 7.29816,1.05068 9.00739,2.12384c1.85493,1.22136 3.0996,2.83151 3.734,4.8338c0.19398,0.63524 0.24394,1.58685 0.14653,2.85649c-0.04912,1.26964 -0.24477,2.17213 -0.58528,2.70913c-1.12395,2.05058 -3.39349,3.88136 -6.81112,5.49319c0,0.14653 0.02414,0.24477 0.07326,0.29306c1.22052,0.87918 2.05058,1.66011 2.49017,2.34281c1.26798,2.05058 2.12384,5.02945 2.5626,8.93413c0.63441,5.32251 1.14643,8.66605 1.53773,10.0331c0.04912,0.29306 0.39047,0.75679 1.02487,1.3912c0.63441,0.63607 1.14726,0.97742 1.53856,1.02487c1.51192,0.09824 2.44105,-0.58528 2.78323,-2.05058c-0.04995,-0.537 0.16984,-1.26881 0.65855,-2.19711c0.68353,-0.63441 1.51275,-0.95244 2.49017,-0.95244c0.97825,0.00167 1.61266,0.44209 1.90655,1.3196zM250.14798,245.66461c0.43876,-0.43876 0.65855,-1.12228 0.65855,-2.05058c0,-2.48933 -0.87918,-4.271 -2.63586,-5.34582c-1.75752,-1.07316 -5.56645,-1.56187 -11.42513,-1.46446c-0.43876,0 -1.09814,0.19482 -1.97731,0.58528c0.14736,0.73265 0.14736,1.34291 0,1.83078c-0.04912,0.73265 -0.04912,1.41617 0,2.05058c0.02414,1.31793 0.0741,2.95473 0.14736,4.90707c0.24311,2.88063 0.36549,4.49246 0.36549,4.83297c0.82922,-0.04829 2.05058,-0.29306 3.66157,-0.73181c0.24311,-0.24394 0.58528,-0.51285 1.02487,-0.80591c0.34051,-0.09741 1.21969,-0.14653 2.63586,-0.14653c2.68582,0.00083 5.20096,-1.21886 7.5446,-3.66157z" fill="#faa83b"/><path d="M256.27473,288.30883c-2.87148,0 -7.09835,-0.90582 -10.92976,-5.21928c-0.06327,-0.0716 -0.12572,-0.1432 -0.18899,-0.21563c-1.1689,0.66688 -2.48517,1.15059 -3.91883,1.41701c-1.43948,0.26808 -3.55584,0.64856 -6.33906,1.13644c-2.84733,0.55365 -4.96202,0.81174 -6.64711,0.81174c-5.66802,0 -8.86836,-2.48101 -10.55594,-4.56239c-1.14393,-1.41035 -1.84244,-3.1304 -2.00645,-4.93871c-0.46873,-5.16516 2.18628,-9.62265 6.68957,-11.72735c-0.06577,-0.9566 -0.1407,-2.04059 -0.22645,-3.26611c-1.44448,-1.35456 -2.50932,-3.08877 -3.07545,-5.08191c-0.23145,-0.81424 -0.34884,-1.65678 -0.34884,-2.50349v-0.22063c0,-1.03736 0.17567,-2.04891 0.50369,-2.99802c0.23894,-0.93496 0.62441,-1.82912 1.14559,-2.64835c0.27058,-0.42543 0.56031,-0.82839 0.86752,-1.2097c-0.00666,-0.07326 -0.01332,-0.14736 -0.01832,-0.22063c-1.48528,-0.55698 -3.01634,-1.44781 -4.33677,-2.87397c-2.00229,-2.16464 -2.97888,-4.99282 -2.74826,-7.96587c0.55032,-6.6188 5.96774,-9.73088 10.59757,-10.44854c1.98814,-0.38131 5.6214,-0.92413 11.08461,-1.65595c0.8567,-0.11406 1.70257,-0.1074 2.51931,0.00999c0.51702,0.02331 1.66344,0.0666 4.13696,0.13154c0.16235,0.00416 0.32553,0.01332 0.48704,0.02581c5.92195,0.47123 10.10054,1.58185 13.14851,3.49589c0.05661,0.03497 0.11239,0.07077 0.16818,0.1074c3.5933,2.36695 6.16173,5.72547 7.42721,9.7134c0.00916,0.02997 0.01832,0.05911 0.02747,0.08908c0.53283,1.74087 0.70267,3.67239 0.53283,6.06848c-0.12488,2.70497 -0.71683,4.92622 -1.80664,6.77282c-0.63191,1.11895 -1.39286,2.17213 -2.28702,3.16454c0.76262,2.17213 1.31793,4.63732 1.67926,7.43387c0.34135,-0.02581 0.68602,-0.03913 1.03403,-0.03913c4.89541,0 9.05235,2.97222 10.59008,7.5729c0.06078,0.18399 0.11656,0.36799 0.16568,0.55531c1.25716,4.7364 -1.11312,8.87335 -1.89156,10.23291c-1.57769,2.75742 -3.39848,4.80383 -5.56312,6.24915c-2.24373,1.4986 -5.06192,2.39609 -8.6136,2.7441c-0.47372,0.04496 -0.89083,0.06327 -1.30295,0.06327z" fill="#f9a937"/></g><path d="M264.79425,271.36886c0.19398,0.73265 -0.13404,1.84411 -0.98741,3.33271c-0.8517,1.48944 -1.75252,2.55094 -2.70247,3.18535c-0.94994,0.63441 -2.42356,1.04985 -4.41919,1.24467c-1.60766,0.14653 -3.10542,-0.56197 -4.49246,-2.12384c-1.3887,-1.56187 -2.17879,-3.29525 -2.37361,-5.1993c-0.537,-5.36997 -1.21886,-9.22719 -2.04642,-11.57083c-0.09824,-0.58528 -0.36549,-1.45114 -0.80425,-2.59923c-0.43792,-1.14643 -1.43615,-2.08721 -2.99469,-2.81986c-1.16974,-0.43876 -2.36195,-0.90249 -3.57915,-1.3912c-0.19482,-0.04829 -0.43792,-0.04829 -0.73015,0c-0.68186,0.19482 -2.09554,0.58528 -4.2377,1.1714v1.3912v5.71215c0,0.09824 0.03663,0.56197 0.1099,1.3912c0.07326,0.83089 0.1099,1.41701 0.1099,1.75752c0.09741,0.83089 0.22063,3.028 0.36632,6.59049c0.34051,0.14736 0.70684,0.14736 1.09814,0c1.31793,-0.537 2.48933,-0.65855 3.51504,-0.36549c0.73265,0.24477 1.09814,0.83089 1.09814,1.75752c0,1.36789 -0.72016,2.18545 -2.16048,2.4527c-1.44032,0.26891 -3.55167,0.64773 -6.33407,1.1356c-2.24623,0.43876 -3.90634,0.65855 -4.9795,0.65855c-1.66011,0 -2.8082,-0.39047 -3.44178,-1.1714c-0.14653,-1.61182 0.68269,-2.58674 2.48933,-2.92976c1.46529,-0.14653 2.92976,-0.3172 4.39338,-0.51285c0.19482,-0.24311 0.29389,-0.51202 0.29389,-0.80508c-0.04995,-1.12311 -0.31804,-5.15101 -0.80591,-12.08368c-0.14653,-1.65928 -0.19565,-2.92976 -0.14653,-3.8081c-0.87918,-0.04829 -1.46529,-0.12155 -1.75752,-0.21979c-0.73265,-0.24394 -1.19721,-0.70767 -1.3912,-1.3912v-0.22063c0.09658,-0.04829 0.16984,-0.29306 0.21979,-0.73181c0.68269,-1.07399 1.56187,-1.48861 2.6367,-1.2455c0.09658,-0.29306 0.07326,-1.07316 -0.0741,-2.34281c-0.43876,-4.63732 -0.7085,-8.34801 -0.80508,-11.13124c-0.19565,-0.19398 -0.61109,-0.24394 -1.2455,-0.14653c-0.97659,0.19565 -1.48944,0.29306 -1.53773,0.29306c-2.6367,0 -3.90634,-0.63357 -3.8081,-1.90405c0.09741,-1.1714 1.09814,-1.87824 3.00219,-2.12384c1.7084,-0.34051 5.2967,-0.87834 10.76575,-1.61099c-0.24477,0.04912 1.48861,0.12155 5.1993,0.21979c4.29514,0.34218 7.29816,1.05068 9.00739,2.12384c1.85493,1.22136 3.0996,2.83151 3.734,4.8338c0.19398,0.63524 0.24394,1.58685 0.14653,2.85649c-0.04912,1.26964 -0.24477,2.17213 -0.58528,2.70913c-1.12395,2.05058 -3.39349,3.88136 -6.81112,5.49319c0,0.14653 0.02414,0.24477 0.07326,0.29306c1.22052,0.87918 2.05058,1.66011 2.49017,2.34281c1.26798,2.05058 2.12384,5.02945 2.5626,8.93413c0.63441,5.32251 1.14643,8.66605 1.53773,10.0331c0.04912,0.29306 0.39047,0.75679 1.02487,1.3912c0.63441,0.63607 1.14726,0.97742 1.53856,1.02487c1.51192,0.09824 2.44105,-0.58528 2.78323,-2.05058c-0.04995,-0.537 0.16984,-1.26881 0.65855,-2.19711c0.68353,-0.63441 1.51275,-0.95244 2.49017,-0.95244c0.97825,0.00167 1.61266,0.44209 1.90655,1.3196zM250.14798,245.66461c0.43876,-0.43876 0.65855,-1.12228 0.65855,-2.05058c0,-2.48933 -0.87918,-4.271 -2.63586,-5.34582c-1.75752,-1.07316 -5.56645,-1.56187 -11.42513,-1.46446c-0.43876,0 -1.09814,0.19482 -1.97731,0.58528c0.14736,0.73265 0.14736,1.34291 0,1.83078c-0.04912,0.73265 -0.04912,1.41617 0,2.05058c0.02414,1.31793 0.0741,2.95473 0.14736,4.90707c0.24311,2.88063 0.36549,4.49246 0.36549,4.83297c0.82922,-0.04829 2.05058,-0.29306 3.66157,-0.73181c0.24311,-0.24394 0.58528,-0.51285 1.02487,-0.80591c0.34051,-0.09741 1.21969,-0.14653 2.63586,-0.14653c2.68582,0.00083 5.20096,-1.21886 7.5446,-3.66157z" fill="#ffffff" stroke="none" stroke-width="1"/><path d="M308.94234,242.26288c-0.02949,0.12532 -0.05161,0.25065 -0.08847,0.37597c-0.11058,0.46444 -0.33911,1.56287 -0.56764,3.70813c0,0.03686 0,0.06635 -0.00737,0.08847c1.26061,5.07196 -0.86253,8.16083 -2.27058,9.56889c-0.08847,0.09584 -0.1843,0.1843 -0.28751,0.27277c-1.37857,1.25324 -3.78922,2.74977 -7.38677,2.74977c-1.7914,0 -3.46485,-0.39809 -4.92451,-1.12792c0.03686,2.01256 0.05898,4.78445 0.05898,8.63265c1.32696,0.46444 2.54335,1.21638 3.57543,2.20422c2.04942,1.96833 3.16997,4.60015 3.16997,7.40889c0,4.17257 -2.40328,7.79959 -6.27359,9.4583c-0.09584,0.04423 -0.19904,0.08847 -0.29488,0.12532c-1.29747,0.49393 -2.75714,0.7372 -4.46744,0.7372c-0.61925,0 -1.28273,-0.02949 -2.00519,-0.09584c-0.44232,-0.02212 -1.09106,-0.01474 -1.85775,0.00737c-1.39331,0.15481 -3.35427,0.30963 -5.97872,0.45707c-0.05161,0 -0.10321,0.00737 -0.16218,0.00737c-0.34648,0.01474 -0.67823,0.02212 -1.0026,0.02212c-4.69598,0 -8.12397,-1.48915 -10.19551,-4.41584c-0.04423,-0.05898 -0.0811,-0.11795 -0.11795,-0.17693c-2.1084,-3.14785 -2.16737,-7.12874 -0.16218,-10.37981c0.01474,-0.03686 0.03686,-0.06635 0.05898,-0.10321c1.27536,-2.00519 3.14048,-3.43537 5.5585,-4.27577c0.02949,-1.4228 0.02212,-3.20683 -0.02212,-5.3226c-1.20164,0.5013 -2.58758,0.79617 -4.14308,0.79617c-4.10622,0 -7.49735,-2.44014 -8.67688,-6.14827c-0.24328,-0.75195 -0.47181,-1.85038 -1.0026,-4.32738c-0.02212,-0.08847 -0.03686,-0.17693 -0.05161,-0.26539l-1.09106,-6.09666c-0.03686,-0.13269 -0.08847,-0.28751 -0.14744,-0.46444c-0.56764,-1.61447 -0.83304,-2.98567 -0.83304,-4.31264c0,-1.64396 0.47918,-4.12834 2.74977,-6.60534c1.14266,-1.25324 3.22158,-2.87509 6.56847,-3.3985c0.41283,-0.06635 0.83304,-0.10321 1.25324,-0.10321h8.15346c0.1843,0 0.3686,0.00737 0.55291,0.02212c3.11099,0.11058 5.89762,0.10321 8.28615,-0.00737c3.33953,-0.14744 6.67168,-0.43495 9.93749,-0.85515c0.3686,-0.11795 0.76669,-0.23591 1.19427,-0.33911c0.40546,-0.10321 0.81829,-0.16955 1.23113,-0.21379c3.14048,-0.28751 6.06717,0.61925 8.34513,2.56547c2.82348,2.42539 4.06936,6.09666 3.32478,9.8269z" fill="#f9a937" stroke="none" stroke-width="1"/><path d="M300.9894,240.67347c-0.30226,1.21123 -0.56175,2.85297 -0.77775,4.9282c-0.08772,1.03798 -0.04497,1.8806 0.12975,2.52934c0.30078,1.08147 0.28087,1.79509 -0.06487,2.14009c-0.47624,0.432 -1.12424,0.648 -1.94548,0.648c-0.95173,0 -1.57983,-0.28235 -1.8806,-0.84852c-0.04497,-1.74127 -0.02285,-3.37491 0.06487,-4.89945c0.08478,-1.8725 0.12975,-2.85224 0.12975,-2.93923c-0.04497,0 -0.10911,-0.04351 -0.19462,-0.13123c-4.02144,0.17471 -7.80402,0.43421 -11.34849,0.7807c-0.08699,0.43421 -0.08699,1.12644 0,2.07891c0.17177,1.34319 0.25949,2.12315 0.25949,2.3384c-0.1725,1.34319 -0.25949,3.3351 -0.25949,5.97798c0.17177,1.12644 0.25949,5.9566 0.25949,14.48971v4.74389c0,0.73646 0.10689,1.2562 0.32142,1.55919h3.98163c0.72762,-0.08626 1.31591,0.08699 1.76634,0.51899c0.44896,0.43274 0.6738,0.951 0.6738,1.55551c0,0.95025 -0.45338,1.62111 -1.36161,2.01108c-0.56248,0.21527 -1.55623,0.25949 -2.98272,0.12974c-0.69149,-0.04423 -1.7081,-0.04423 -3.04833,0c-1.21048,0.15039 -3.15523,0.30151 -5.83569,0.45339c-2.33472,0.08626 -3.76121,-0.23813 -4.2802,-0.97238c-0.34648,-0.51826 -0.34648,-1.05935 0,-1.6211c0.6045,-0.95025 2.18286,-1.4265 4.73432,-1.4265c0.90749,0 1.46851,-0.07519 1.68524,-0.22632c0.216,-0.15113 0.32437,-0.44306 0.32437,-0.87506c0,-0.38777 0,-0.75416 0,-1.09991c0,-0.64652 0,-1.59604 0,-2.84708c0.12975,-2.19907 0.12975,-5.47889 0,-9.83649c-0.17324,-6.25516 -0.08699,-11.75469 0.25949,-16.5008c-0.0435,-0.04276 -0.10837,-0.10763 -0.1961,-0.19462c-1.56508,0.08699 -4.08631,0.0435 -7.56369,-0.13049c-0.39146,0 -1.71842,0.08772 -3.97794,0.26023c0.56175,3.93445 0.90749,6.89579 1.03725,8.88403c0,0.25949 -0.0435,0.84336 -0.12975,1.75086c-0.0435,0.648 -0.58386,0.97237 -1.62111,0.97237c-0.56248,0 -0.88612,-0.19315 -0.97237,-0.5787c-0.0435,-0.08478 -0.30299,-1.24366 -0.77848,-3.47296c-0.25949,-1.45745 -0.62736,-3.51572 -1.10212,-6.17407c0,-0.16955 -0.15186,-0.7055 -0.45338,-1.6071c-0.25802,-0.72909 -0.38703,-1.28642 -0.38703,-1.67198c0,-0.2993 0.2042,-0.67601 0.6163,-1.12497c0.41062,-0.44969 1.02692,-0.74015 1.84817,-0.86916c0.12975,0 0.33395,0 0.6163,0c0.28014,0 0.50719,0 0.68044,0c5.14494,0 7.39267,0 6.74393,0c3.50171,0.13049 6.61418,0.13049 9.3374,0c3.89022,-0.17177 7.73694,-0.51826 11.54238,-1.03725c0.25949,-0.12975 0.648,-0.25949 1.16625,-0.3885c0.95173,-0.08626 1.72948,0.12975 2.33546,0.64874c0.6045,0.51751 0.8205,1.20975 0.648,2.07449z" fill="#ffffff" stroke="none" stroke-width="1"/></g></g></svg>
